<?xml version="1.0" standalone="no"?><!DOCTYPE svg PUBLIC "-//W3C//DTD SVG 1.1//EN" "http://www.w3.org/Graphics/SVG/1.1/DTD/svg11.dtd"><svg class="icon" height="512" viewBox="0 0 1772 1024" version="1.1" xmlns="http://www.w3.org/2000/svg"><path d="M742.595212 997.943741l1029.210908 0 0 26.055972-1029.210908 0 0-26.055972ZM979.70456 502.880266 792.101559 356.966821 789.495962 356.966821 789.495962 640.97692 865.058282 640.97692 865.058282 497.669072 1052.661283 643.582517 1052.661283 643.582517 1052.661283 359.572418 979.70456 359.572418ZM1730.116564 359.572418l-213.658973 0-5.211194 0-75.56232 0-52.111945 75.56232-52.111945-75.56232-75.56232 0-5.211194 0-190.208598 0 0 281.404501 182.391806 0 15.633583 0 65.139931 0 62.534334-88.590306 62.534334 88.590306 80.773514 0-101.618292-145.913445 85.984709-125.068667 0 54.717542 72.956723 0 0 218.870168 72.956723 0 0-218.870168 72.956723 0L1732.722161 359.572418zM1258.503465 620.132142l0-41.689556-125.068667 0 0-52.111945 101.618292 0 0-62.534334-101.618292 0 0-44.295153 125.068667 0 0-54.717542 85.984709 125.068667L1258.503465 620.132142zM1602.4423 979.70456 1602.4423 870.269477 1722.299772 661.821698 1638.920661 661.821698 1563.358341 805.129546 1487.796021 661.821698 1404.41691 661.821698 1521.668785 870.269477 1521.668785 979.70456ZM1245.475478 659.2161l-161.547029 320.48846 83.379112 0 18.239181-41.689556 119.857473 0 20.844778 41.689556 83.379112 0L1245.475478 659.2161 1245.475478 659.2161zM1219.419506 870.269477l26.055972-54.717542 26.055972 54.717542L1219.419506 870.269477zM924.987018 661.821698l-135.491056 0 0 317.882863 135.491056 0c44.295153 0 78.167917-15.633583 106.829487-44.295153 28.66157-31.267167 44.295153-67.745528 44.295153-114.646278 0-46.90075-15.633583-83.379112-44.295153-114.646278C1005.760533 677.455281 969.282171 661.821698 924.987018 661.821698zM974.493366 885.90306c-15.633583 15.633583-36.478361 23.450375-62.534334 23.450375l-39.083959 0L872.875074 732.172823l39.083959 0c26.055972 0 46.90075 7.816792 62.534334 23.450375 15.633583 15.633583 23.450375 36.478361 23.450375 65.139931S990.126949 870.269477 974.493366 885.90306zM1253.29227 0 734.77842 312.671668 734.77842 317.882863 781.679171 317.882863 1253.29227 31.267167 1727.510967 317.882863 1771.80612 317.882863 1771.80612 312.671668Z" /></svg>